# xmcd
#
# Track frame offsets:
#	150
#	25583
#	58721
#	86738
#	121114
#	161220
#	192048
#	216469
#
# Disc length: 3393 seconds
#
# Revision: 1
# Processed by: cddbd v1.5.2PL0 Copyright (c) Steve Scherf et al.
# Submitted via: audiograbber 1.83.01
#
DISCID=690d3f08
DTITLE=Grateful Dead - 77-05-11 St Paul Civic Centre Arena, St Paul MN
DYEAR=1900
DGENRE=
TTITLE0=Promised Land
TTITLE1=They Love Each Other
TTITLE2=Big River
TTITLE3=Loser
TTITLE4=Looks Like Rain
TTITLE5=Ramble On Rose
TTITLE6=Jack Straw
TTITLE7=Peggy-O
EXTD=
EXTT0=
EXTT1=
EXTT2=
EXTT3=
EXTT4=
EXTT5=
EXTT6=
EXTT7=
PLAYORDER=
